<svg width="31" height="26" viewBox="0 0 31 26" fill="none" xmlns="http://www.w3.org/2000/svg">
<path d="M10.4011 24.2649L10.3333 25.2626L10.4011 24.2649C9.50143 24.2038 8.599 24.1266 7.69158 24.0333C5.75221 23.8338 4.46079 23.4448 3.58859 22.8741C2.75813 22.3307 2.22752 21.5699 1.9147 20.417C0.661676 15.7992 0.971499 11.6885 1.25008 10.0939C1.28151 10.0526 1.33386 9.99086 1.41461 9.90764C1.61111 9.70515 1.90872 9.4435 2.30478 9.1287C3.09262 8.50252 4.1847 7.73303 5.42648 6.9047C7.90497 5.25144 10.9078 3.4114 13.0949 2.09821C14.5527 1.22289 16.5701 1.21871 18.0331 2.08926C20.2384 3.40157 23.2681 5.24394 25.7533 6.8993C26.9988 7.72891 28.0875 8.49833 28.863 9.12303C29.2534 9.43748 29.5398 9.69572 29.7227 9.89222C29.7788 9.95258 29.818 9.99943 29.8441 10.0333C29.9857 11.7495 30.313 15.8535 29.193 20.4418C28.9135 21.5864 28.3898 22.3415 27.5554 22.8821C26.6754 23.4522 25.3669 23.8374 23.4245 24.033C22.4751 24.1286 21.5346 24.2073 20.6006 24.2691C17.1563 24.4971 13.7966 24.4956 10.4011 24.2649ZM1.21841 10.14C1.21824 10.14 1.21961 10.1374 1.22301 10.1321C1.22027 10.1373 1.21857 10.14 1.21841 10.14ZM29.8868 10.0955C29.8865 10.0955 29.8846 10.0923 29.8816 10.0863C29.8855 10.0926 29.887 10.0956 29.8868 10.0955Z" stroke="white" stroke-width="2" stroke-linecap="round" stroke-linejoin="round"/>
</svg>
